<svg xmlns="http://www.w3.org/2000/svg" width="124" height="47.597" viewBox="0 0 124 47.597">
  <g id="Airtel_a_reason_to_imagine" data-name="Airtel a reason to imagine" transform="translate(-57.9 -110.7)">
    <g id="Group_20216" data-name="Group 20216" transform="translate(58.856 110.7)">
      <g id="Group_20215" data-name="Group 20215">
        <g id="Group_20214" data-name="Group 20214" transform="translate(36.705)">
          <path id="Path_16342" data-name="Path 16342" d="M205.786,110.7a3.523,3.523,0,0,0-3.486,3.526,3.447,3.447,0,1,0,6.891.04,3.489,3.489,0,0,0-3.405-3.566" transform="translate(-182.107 -110.7)" fill="#ec2027"/>
          <path id="Path_16343" data-name="Path 16343" d="M204.8,155h5.409V132.8l-5.409.922Z" transform="translate(-183.606 -123.946)" fill="#ec2027"/>
          <path id="Path_16344" data-name="Path 16344" d="M163.519,150.25a5.117,5.117,0,0,1-2.8.721c-2.163,0-3.165-1.723-3.125-3.726a3.464,3.464,0,0,1,3.766-3.526h2.164Zm-2.244-18.35a15.769,15.769,0,0,0-7.292,1.963l-.6.32,1.442,3.325.841-.4a12.2,12.2,0,0,1,5.128-1.242c1.963.08,2.764,1,2.764,2.925v1.122h-3.205c-5.168,0-8.374,2.8-8.454,7.172a7.837,7.837,0,0,0,8.053,7.732,12.414,12.414,0,0,0,9.135-3.486V139.552c-.08-5.769-4.047-7.652-7.813-7.652" transform="translate(-151.9 -123.406)" fill="#ec2027"/>
          <path id="Path_16345" data-name="Path 16345" d="M301.493,136.367c2.4,0,2.764,2.684,2.764,4.367h-5.89c.12-2.164.962-4.367,3.125-4.367m1.162,14.744a3.851,3.851,0,0,1-3.125-1.242c-.962-1.082-1.4-3.325-1.282-5.689h11.659v-.561c-.12-7.853-2.684-11.418-8.414-11.418-6.37,0-8.854,6.01-8.894,11.7-.04,3.566,1.282,7.172,3.686,9.215a8.858,8.858,0,0,0,5.85,1.923,12.639,12.639,0,0,0,3.846-.6,16.449,16.449,0,0,0,4.087-2.043l-1.522-3.245a9.9,9.9,0,0,1-5.89,1.963" transform="translate(-236.228 -123.586)" fill="#ec2027"/>
          <path id="Path_16346" data-name="Path 16346" d="M229.1,136.385v18.229h5.529V137.466a5.936,5.936,0,0,1,3.686-1.4,6.965,6.965,0,0,1,2.2.24l1.522-3.526a9.536,9.536,0,0,0-3.646-.681,12.163,12.163,0,0,0-9.295,4.287" transform="translate(-198.17 -123.524)" fill="#ec2027"/>
          <path id="Path_16347" data-name="Path 16347" d="M352.233,142.4c-2.244-.16-2.725-1.2-2.725-2.885V117.6l-5.409.962v20.633c0,4.888,2.564,6.971,6.891,6.971a12.417,12.417,0,0,0,2.083-.24V142.44a4.171,4.171,0,0,0-.841-.04" transform="translate(-267.096 -114.836)" fill="#ec2027"/>
          <path id="Path_16348" data-name="Path 16348" d="M270.629,117.6l-5.529.921v20.713c0,4.648,2.644,6.851,7.051,6.851a11.279,11.279,0,0,0,2.043-.2V142.44h-.761c-2.324-.08-2.8-1.4-2.8-2.925V127.857h3.566V123.77h-3.566Z" transform="translate(-219.747 -114.836)" fill="#ec2027"/>
        </g>
        <path id="Path_16349" data-name="Path 16349" d="M71.71,146.565a24.836,24.836,0,0,0,4.607-2.4l.361-.24a34.286,34.286,0,0,0,4.327-3.285,19.866,19.866,0,0,0,6.29-9.015,11.537,11.537,0,0,0,.321-6.571,8.528,8.528,0,0,0-3.285-4.487,9.621,9.621,0,0,0-6.01-1.763c-3.486,0-7.292,1.362-11.338,4.006l-.12.08h0l-.361.24a2.233,2.233,0,0,1-.321.2,26.258,26.258,0,0,0-2.364,1.8c-1.723,1.643-3.646,4.407-3.526,6.771a3.114,3.114,0,0,0,1.242,2.4,4.163,4.163,0,0,0,2.564.8,12.24,12.24,0,0,0,5.889-2.083c.08-.08.2-.12.28-.2a9.068,9.068,0,0,1,.8-.521l.28-.16a30.98,30.98,0,0,1,7.051-3.886,5.2,5.2,0,0,1,1.8-.321,4.438,4.438,0,0,1,.761.08,2.386,2.386,0,0,1,1.683,1.322,6.1,6.1,0,0,1-.361,4.888,21.561,21.561,0,0,1-5.649,7.011,21.633,21.633,0,0,1-3.686,2.644l-.08.04a13.809,13.809,0,0,1-1.723.841l-.08.04a3.363,3.363,0,0,1-.481.16c-2.564.681-1-1.563-1-1.563a25.048,25.048,0,0,1,1.763-1.8c.361-.32.721-.681,1.082-1.042l.08-.08a2.719,2.719,0,0,0,1.042-1.963,2.315,2.315,0,0,0-2.364-1.963h-.08a4.829,4.829,0,0,0-2.764,1.162,8.4,8.4,0,0,0-1.843,2.083c-.681,1.082-2.123,3.886-.721,6.09a3.1,3.1,0,0,0,2.8,1.322,9.408,9.408,0,0,0,3.125-.641" transform="translate(-60.287 -115.555)" fill="#ec2027"/>
      </g>
    </g>
    <g id="Group_20217" data-name="Group 20217" transform="translate(57.9 150.124)">
      <path id="Path_16350" data-name="Path 16350" d="M58.5,217.453a.9.9,0,0,1-.4-.12c-.12-.08-.2-.16-.2-.28v-.08c0-.04.04-.08.04-.16l2.925-6.931a.483.483,0,0,1,.2-.2.852.852,0,0,1,.721,0,.4.4,0,0,1,.16.2l2.885,6.891a.2.2,0,0,1,.04.12v.08a.408.408,0,0,1-.2.32.677.677,0,0,1-.4.12.339.339,0,0,1-.24-.08.875.875,0,0,1-.16-.2l-.841-2H59.623l-.881,2A.243.243,0,0,1,58.5,217.453Zm2.925-6.571-1.362,3.446h2.684Z" transform="translate(-57.9 -209.4)" fill="#ec2027"/>
      <path id="Path_16351" data-name="Path 16351" d="M91.629,216.811a.677.677,0,0,1,.08.2v.12a.364.364,0,0,1-.16.321.677.677,0,0,1-.4.12.339.339,0,0,1-.24-.08c-.08-.04-.12-.16-.2-.28l-1.6-3H87.062v2.885a.49.49,0,0,1-.12.361c-.08.08-.2.08-.361.08a.8.8,0,0,1-.361-.08.49.49,0,0,1-.12-.361v-6.811a.425.425,0,0,1,.481-.481h1.963a3.768,3.768,0,0,1,2.244.561A1.938,1.938,0,0,1,91.509,212a2.76,2.76,0,0,1-.08.521,3.143,3.143,0,0,1-.2.561,1.8,1.8,0,0,1-.441.521,3.074,3.074,0,0,1-.721.4Zm-4.527-6.17v2.764h1.442a5.756,5.756,0,0,0,.962-.08,1.7,1.7,0,0,0,.6-.24.713.713,0,0,0,.321-.441,1.369,1.369,0,0,0,.08-.6,3.092,3.092,0,0,0-.08-.6,1.136,1.136,0,0,0-.321-.441,2.092,2.092,0,0,0-.6-.28,3.151,3.151,0,0,0-.921-.08Z" transform="translate(-74.802 -209.52)" fill="#ec2027"/>
      <path id="Path_16352" data-name="Path 16352" d="M104.922,213.967v2.644h3.926a.394.394,0,0,1,.321.12c.08.08.08.16.08.32a.621.621,0,0,1-.08.321.394.394,0,0,1-.321.12h-4.367a.425.425,0,0,1-.481-.481v-6.731a.425.425,0,0,1,.481-.481h4.367a.394.394,0,0,1,.321.12c.08.08.08.16.08.321a.62.62,0,0,1-.08.32.394.394,0,0,1-.321.12h-3.926v2.484h3.726a.394.394,0,0,1,.321.12c.08.08.08.16.08.32a.621.621,0,0,1-.08.321.394.394,0,0,1-.321.12h-3.726Z" transform="translate(-85.53 -209.52)" fill="#ec2027"/>
      <path id="Path_16353" data-name="Path 16353" d="M120.3,217.453a.9.9,0,0,1-.4-.12c-.12-.08-.2-.16-.2-.28v-.08c0-.04.04-.08.04-.16l2.925-6.931a.483.483,0,0,1,.2-.2.852.852,0,0,1,.721,0,.4.4,0,0,1,.16.2l2.885,6.891a.2.2,0,0,1,.04.12v.08a.408.408,0,0,1-.2.32.677.677,0,0,1-.4.12.339.339,0,0,1-.24-.08.875.875,0,0,1-.16-.2l-.841-2h-3.405l-.881,2A.243.243,0,0,1,120.3,217.453Zm2.925-6.571-1.362,3.446h2.684Z" transform="translate(-94.94 -209.4)" fill="#ec2027"/>
      <path id="Path_16354" data-name="Path 16354" d="M143.406,212.906a3.065,3.065,0,0,1,1.4.761,1.947,1.947,0,0,1,.441,1.322,2.473,2.473,0,0,1-.2,1,1.9,1.9,0,0,1-.561.681,2.05,2.05,0,0,1-.841.4,3.951,3.951,0,0,1-.962.12,5.355,5.355,0,0,1-1.6-.24,3.037,3.037,0,0,1-1.282-.8c-.08-.12-.16-.2-.16-.24,0-.08-.04-.12-.04-.2a.364.364,0,0,1,.16-.321.72.72,0,0,1,.361-.16.208.208,0,0,1,.16.08.553.553,0,0,0,.16.12,3.063,3.063,0,0,0,1.042.721,3.529,3.529,0,0,0,1.162.2,2,2,0,0,0,1.162-.321,1.023,1.023,0,0,0,.441-.962,1.32,1.32,0,0,0-.321-.881,3.364,3.364,0,0,0-1.082-.561l-.962-.28a3.6,3.6,0,0,1-1.522-.761,1.84,1.84,0,0,1-.521-1.362,1.9,1.9,0,0,1,.24-.962,1.854,1.854,0,0,1,.6-.641,2.729,2.729,0,0,1,.841-.4,3.639,3.639,0,0,1,.921-.12,4.192,4.192,0,0,1,1.442.24,2.327,2.327,0,0,1,1.122.841.877.877,0,0,0,.12.2.241.241,0,0,1,.04.16.364.364,0,0,1-.16.321.455.455,0,0,1-.32.12.3.3,0,0,1-.2-.04.7.7,0,0,1-.2-.16,3.142,3.142,0,0,0-.841-.681,2.624,2.624,0,0,0-1-.2,3.1,3.1,0,0,0-.6.08,1.242,1.242,0,0,0-.521.24,1.136,1.136,0,0,0-.361.4,1.279,1.279,0,0,0-.12.561,1.186,1.186,0,0,0,.08.4.873.873,0,0,0,.2.32,1.023,1.023,0,0,0,.4.28,4.293,4.293,0,0,0,.681.24Z" transform="translate(-106.867 -209.1)" fill="#ec2027"/>
      <path id="Path_16355" data-name="Path 16355" d="M163.872,213.347a4.64,4.64,0,0,1-.28,1.683,3.758,3.758,0,0,1-.761,1.282,3.355,3.355,0,0,1-1.162.8,3.622,3.622,0,0,1-1.482.28,3.5,3.5,0,0,1-1.482-.28,3.355,3.355,0,0,1-1.162-.8,4.032,4.032,0,0,1-.761-1.282,5.277,5.277,0,0,1-.28-1.683,4.639,4.639,0,0,1,.28-1.683,3.757,3.757,0,0,1,.761-1.282,3.355,3.355,0,0,1,1.162-.8,3.621,3.621,0,0,1,1.482-.28,3.5,3.5,0,0,1,1.482.28,3.354,3.354,0,0,1,1.162.8,4.031,4.031,0,0,1,.761,1.282A4.36,4.36,0,0,1,163.872,213.347Zm-6.25,0a4.158,4.158,0,0,0,.16,1.282,3.327,3.327,0,0,0,.481,1,2.466,2.466,0,0,0,.8.641,2.56,2.56,0,0,0,1.122.24,2.439,2.439,0,0,0,1.122-.24,2.4,2.4,0,0,0,1.282-1.643,4.324,4.324,0,0,0,.16-1.282,4.157,4.157,0,0,0-.16-1.282,3.327,3.327,0,0,0-.481-1,2.465,2.465,0,0,0-.8-.641,2.559,2.559,0,0,0-1.122-.24,2.439,2.439,0,0,0-1.122.24,2.109,2.109,0,0,0-.8.641,2.592,2.592,0,0,0-.481,1A4.156,4.156,0,0,0,157.622,213.347Z" transform="translate(-116.996 -209.22)" fill="#ec2027"/>
      <path id="Path_16356" data-name="Path 16356" d="M179.862,211.1v5.809c0,.16-.04.28-.12.321-.08.08-.2.08-.361.08a.8.8,0,0,1-.361-.08.394.394,0,0,1-.12-.321v-6.931c0-.16.04-.321.16-.361a.644.644,0,0,1,.441-.12.6.6,0,0,1,.4.12,1.107,1.107,0,0,1,.24.321l3.926,5.849v-5.849c0-.16.04-.281.12-.321.08-.08.2-.08.361-.08a.8.8,0,0,1,.361.08.394.394,0,0,1,.12.321v6.971c0,.16-.04.321-.16.361a.644.644,0,0,1-.441.12.6.6,0,0,1-.4-.12,1.106,1.106,0,0,1-.24-.321Z" transform="translate(-130.422 -209.34)" fill="#ec2027"/>
      <path id="Path_16357" data-name="Path 16357" d="M208.486,217.032a.49.49,0,0,1-.12.361c-.08.08-.2.08-.361.08a.8.8,0,0,1-.361-.08.49.49,0,0,1-.12-.361v-6.45H205.2c-.16,0-.28-.04-.32-.12a.431.431,0,0,1-.08-.321.754.754,0,0,1,.08-.321.394.394,0,0,1,.32-.12h5.609c.16,0,.28.04.32.12.08.08.08.16.08.321a.62.62,0,0,1-.08.321.394.394,0,0,1-.32.12h-2.324Z" transform="translate(-145.945 -209.46)" fill="#ec2027"/>
      <path id="Path_16358" data-name="Path 16358" d="M229.272,213.347a4.64,4.64,0,0,1-.28,1.683,3.759,3.759,0,0,1-.761,1.282,3.355,3.355,0,0,1-1.162.8,3.622,3.622,0,0,1-1.482.28,3.5,3.5,0,0,1-1.482-.28,3.355,3.355,0,0,1-1.162-.8,4.03,4.03,0,0,1-.761-1.282,5.278,5.278,0,0,1-.28-1.683,4.64,4.64,0,0,1,.28-1.683,3.757,3.757,0,0,1,.761-1.282,3.354,3.354,0,0,1,1.162-.8,3.621,3.621,0,0,1,1.482-.28,3.5,3.5,0,0,1,1.482.28,3.355,3.355,0,0,1,1.162.8,4.031,4.031,0,0,1,.761,1.282A4.361,4.361,0,0,1,229.272,213.347Zm-6.29,0a4.157,4.157,0,0,0,.16,1.282,3.326,3.326,0,0,0,.481,1,2.466,2.466,0,0,0,.8.641,2.559,2.559,0,0,0,1.122.24,2.439,2.439,0,0,0,1.122-.24,2.4,2.4,0,0,0,1.282-1.643,4.325,4.325,0,0,0,.16-1.282,4.157,4.157,0,0,0-.16-1.282,3.327,3.327,0,0,0-.481-1,2.465,2.465,0,0,0-.8-.641,2.559,2.559,0,0,0-1.122-.24,2.439,2.439,0,0,0-1.122.24,2.4,2.4,0,0,0-1.282,1.643A5.886,5.886,0,0,0,222.982,213.347Z" transform="translate(-156.194 -209.22)" fill="#ec2027"/>
      <path id="Path_16359" data-name="Path 16359" d="M253.263,216.712a.6.6,0,0,1-.16.441.829.829,0,0,1-.6.2c-.521,0-.8-.2-.8-.641v-6.571a.6.6,0,0,1,.2-.481,1.158,1.158,0,0,1,.561-.16.848.848,0,0,1,.561.16.547.547,0,0,1,.2.481v6.571Z" transform="translate(-174.055 -209.34)" fill="#ec2027"/>
      <path id="Path_16360" data-name="Path 16360" d="M267.011,212.184l-1.763,4.848a.661.661,0,0,1-.321.4,1.067,1.067,0,0,1-.481.12.832.832,0,0,1-.6-.16,1.256,1.256,0,0,1-.32-.441l-1.643-4.367v4.447a.6.6,0,0,1-.16.441.829.829,0,0,1-.6.2c-.28,0-.481-.04-.561-.16a.638.638,0,0,1-.16-.481v-6.37a.632.632,0,0,1,.281-.6,1.7,1.7,0,0,1,1.522.04,1.017,1.017,0,0,1,.361.521l1.883,5.409,1.8-5.369a.91.91,0,0,1,.441-.561,1.588,1.588,0,0,1,.8-.16,1.2,1.2,0,0,1,.721.16.625.625,0,0,1,.28.521v6.49a.6.6,0,0,1-.16.441.829.829,0,0,1-.6.2.725.725,0,0,1-.561-.16.639.639,0,0,1-.16-.481v-4.928Z" transform="translate(-179.269 -209.579)" fill="#ec2027"/>
      <path id="Path_16361" data-name="Path 16361" d="M285.523,215.87l-.4,1.082a.458.458,0,0,1-.28.321.659.659,0,0,1-.4.08.941.941,0,0,1-.641-.2.643.643,0,0,1-.2-.441,1.17,1.17,0,0,1,.08-.361l2.444-6.29a.806.806,0,0,1,.361-.441,1.234,1.234,0,0,1,.521-.12,1.109,1.109,0,0,1,.521.12.686.686,0,0,1,.361.441l2.4,6.29a1.237,1.237,0,0,1,.08.321.664.664,0,0,1-.2.481.792.792,0,0,1-.561.2.815.815,0,0,1-.761-.441l-.441-1.042Zm1.442-4.247-1,2.925h1.963Z" transform="translate(-193.174 -209.34)" fill="#ec2027"/>
      <path id="Path_16362" data-name="Path 16362" d="M306.086,210.562a1.952,1.952,0,0,0-1,.24,2.452,2.452,0,0,0-.681.6,2.909,2.909,0,0,0-.361.881,4.365,4.365,0,0,0-.12,1.042,3.3,3.3,0,0,0,.521,2,1.834,1.834,0,0,0,1.562.721,2.169,2.169,0,0,0,.761-.12,1.85,1.85,0,0,0,.6-.361,1.653,1.653,0,0,0,.4-.521,1.914,1.914,0,0,0,.24-.721h-1.362a.726.726,0,0,1-.561-.2.806.806,0,0,1-.12-.441.613.613,0,0,1,.681-.681h2.123a.639.639,0,0,1,.481.16.692.692,0,0,1,.2.521v3.205c0,.08-.04.12-.08.2a.873.873,0,0,1-.2.12,1,1,0,0,1-.4.04.889.889,0,0,1-.361-.04.877.877,0,0,1-.2-.12.3.3,0,0,1-.08-.16c0-.08-.04-.12-.04-.2v-.4a.483.483,0,0,1-.2.2.7.7,0,0,1-.2.16,2.58,2.58,0,0,1-.8.441,4.176,4.176,0,0,1-1.122.16,3.686,3.686,0,0,1-1.522-.28,3.2,3.2,0,0,1-1.122-.8,3.409,3.409,0,0,1-.681-1.242,5.326,5.326,0,0,1-.24-1.683,6.012,6.012,0,0,1,.2-1.482,3.471,3.471,0,0,1,.681-1.322,3.3,3.3,0,0,1,1.162-.921,3.952,3.952,0,0,1,1.763-.361,3.883,3.883,0,0,1,1.442.24,3.991,3.991,0,0,1,1.162.721,1.437,1.437,0,0,1,.28.4.807.807,0,0,1,.12.441.687.687,0,0,1-.721.721.6.6,0,0,1-.4-.12,3.269,3.269,0,0,0-.361-.32c-.12-.12-.24-.2-.32-.28a.872.872,0,0,0-.32-.2,1.272,1.272,0,0,0-.361-.12A.645.645,0,0,0,306.086,210.562Z" transform="translate(-204.322 -209.16)" fill="#ec2027"/>
      <path id="Path_16363" data-name="Path 16363" d="M326.163,216.712a.6.6,0,0,1-.16.441.829.829,0,0,1-.6.2c-.521,0-.8-.2-.8-.641v-6.571a.6.6,0,0,1,.2-.481,1.159,1.159,0,0,1,.561-.16.848.848,0,0,1,.561.16.547.547,0,0,1,.2.481v6.571Z" transform="translate(-217.748 -209.34)" fill="#ec2027"/>
      <path id="Path_16364" data-name="Path 16364" d="M334.2,209.6a1.441,1.441,0,0,1,.441.08,1.884,1.884,0,0,1,.441.4l2.8,4.327a3.669,3.669,0,0,0,.2.321,2.37,2.37,0,0,1,.16.321c0-.12-.04-.28-.04-.481v-4.327a.546.546,0,0,1,.2-.481,1.036,1.036,0,0,1,.561-.16.783.783,0,0,1,.561.16.6.6,0,0,1,.2.481v6.49a.508.508,0,0,1-.04.24.569.569,0,0,1-.08.24.368.368,0,0,1-.24.16,1,1,0,0,1-.4.08.854.854,0,0,1-.481-.12,1.53,1.53,0,0,1-.361-.361l-2.764-4.047a3.7,3.7,0,0,0-.2-.321c-.08-.12-.16-.28-.24-.4,0,.12.04.28.04.481v4.127a.6.6,0,0,1-.16.441.829.829,0,0,1-.6.2c-.521,0-.8-.2-.8-.641v-6.45a.672.672,0,0,1,.24-.561A.651.651,0,0,1,334.2,209.6Z" transform="translate(-223.022 -209.4)" fill="#ec2027"/>
      <path id="Path_16365" data-name="Path 16365" d="M354.5,217.492a.531.531,0,0,1-.6-.6v-6.531a.514.514,0,0,1,.16-.4.547.547,0,0,1,.441-.16h4.127a.567.567,0,0,1,.641.641.854.854,0,0,1-.12.481.517.517,0,0,1-.441.2h-3.245v1.8h2.925a.574.574,0,0,1,.441.2.9.9,0,0,1,.04.962.517.517,0,0,1-.441.2H355.5v1.883h3.285a.557.557,0,0,1,.4.2,1.022,1.022,0,0,1,0,.962.547.547,0,0,1-.481.2H354.5Z" transform="translate(-235.309 -209.52)" fill="#ec2027"/>
    </g>
  </g>
</svg>